<svg width="126" height="65" viewBox="0 0 126 65" fill="none" xmlns="http://www.w3.org/2000/svg">
<path d="M40.7482 43.5205C40.7482 46.3283 39.9588 48.8085 38.3799 50.9611C36.8475 53.067 34.6418 54.7048 31.7627 55.8747C28.8836 57.0446 25.517 57.653 21.6627 57.6998V61.4201C21.6627 62.59 21.3609 63.4791 20.7572 64.0875C20.1535 64.6958 19.2944 65 18.18 65V57.6296C12.5147 57.2552 8.05676 55.9683 4.8062 53.7689C1.60207 51.5695 0 48.6447 0 44.9946C0 43.2631 0.650114 41.8593 1.95034 40.7829C3.25057 39.7066 5.43309 39.1685 8.49791 39.1685C8.68366 42.1166 9.58918 44.4564 11.2145 46.1879C12.8862 47.9194 15.208 48.9723 18.18 49.3467V36.0097C13.8614 34.9334 10.4483 33.7401 7.94067 32.4298C5.47953 31.0727 3.69172 29.4816 2.57724 27.6566C1.50919 25.7847 0.975171 23.4917 0.975171 20.7775C0.975171 18.2973 1.67172 16.0745 3.06482 14.1091C4.50436 12.1436 6.52435 10.576 9.12481 9.40605C11.7253 8.23614 14.7436 7.55759 18.18 7.37041V3.50972C18.18 2.38661 18.4818 1.52088 19.0855 0.912528C19.6892 0.304176 20.5482 0 21.6627 0V7.30021C25.0062 7.4406 28.0013 8.00216 30.6482 8.98488C33.2951 9.9676 35.3615 11.3013 36.8475 12.986C38.3335 14.6706 39.0765 16.5893 39.0765 18.7419C39.0765 20.4734 38.4264 21.8539 37.1261 22.8834C35.8723 23.8661 33.7827 24.4042 30.8572 24.4978C30.625 21.5965 29.7659 19.4204 28.2799 17.9698C26.8404 16.5191 24.6347 15.7001 21.6627 15.513V27.8672C26.3528 28.9435 30.0678 30.1836 32.8075 31.5875C35.5937 32.9446 37.6137 34.5824 38.8675 36.5011C40.1213 38.4197 40.7482 40.7595 40.7482 43.5205ZM11.0055 20.9179C11.0055 22.4622 11.5163 23.6789 12.5379 24.568C13.5595 25.4572 15.4402 26.2761 18.18 27.0248V15.513C15.8581 15.7469 14.0703 16.3319 12.8165 17.2678C11.6092 18.1569 11.0055 19.3736 11.0055 20.9179ZM21.6627 49.5572C24.4954 49.5104 26.7243 48.9489 28.3496 47.8726C29.9749 46.7963 30.7875 45.369 30.7875 43.5907C30.7875 41.906 30.1374 40.5958 28.8372 39.6598C27.5834 38.6771 25.1919 37.7412 21.6627 36.8521V49.5572Z" fill="white"/>
<path d="M50.2846 28.6967C49.0435 28.6967 47.8783 28.4543 46.7892 27.9693C45.7254 27.4588 44.8642 26.7313 44.2056 25.7869C43.5471 24.8169 43.2178 23.6555 43.2178 22.3027C43.2178 20.9498 43.5724 19.7884 44.2816 18.8185C44.9908 17.823 45.928 17.07 47.0931 16.5595C48.2836 16.049 49.5754 15.7937 50.9685 15.7937C52.1336 15.7937 53.1594 15.9724 54.046 16.3298C54.9578 16.6871 55.8063 17.2104 56.5915 17.8996L56.7815 17.6698C56.2496 17.1849 55.8317 16.8403 55.5277 16.6361V16.1383C55.5277 15.1684 55.1731 14.4026 54.4639 13.8411C53.78 13.254 52.8048 12.9604 51.5384 12.9604C50.4239 12.9604 49.4361 13.1646 48.5749 13.573C47.7137 13.9814 47.0171 14.5813 46.4852 15.3726C45.8773 15.2194 45.3581 14.9386 44.9275 14.5302C44.5222 14.0963 44.3196 13.6241 44.3196 13.1136C44.3196 12.3223 44.6615 11.6076 45.3454 10.9695C46.0293 10.3058 46.9538 9.79531 48.119 9.43795C49.3094 9.05508 50.6139 8.86364 52.0323 8.86364C54.7932 8.86364 56.9208 9.50177 58.4152 10.778C59.9097 12.0543 60.6569 13.79 60.6569 15.9852V25.2891C60.6569 26.4888 60.2643 27.3567 59.4791 27.8927C58.7192 28.4287 57.5034 28.6967 55.8317 28.6967V27.2035C56.2116 26.8462 56.5156 26.5271 56.7435 26.2463L56.5535 26.0549C55.7177 26.9227 54.8438 27.5864 53.932 28.0458C53.0201 28.4798 51.8043 28.6967 50.2846 28.6967ZM51.7284 24.9445C52.9441 24.9445 53.894 24.7148 54.5779 24.2554C55.2618 23.7959 55.6037 23.1322 55.6037 22.2644C55.6037 21.4221 55.2491 20.7584 54.5399 20.2734C53.856 19.7884 52.9188 19.5459 51.7284 19.5459C50.6645 19.5459 49.816 19.7884 49.1828 20.2734C48.5749 20.7584 48.2709 21.4221 48.2709 22.2644C48.2709 23.1322 48.5749 23.7959 49.1828 24.2554C49.816 24.7148 50.6645 24.9445 51.7284 24.9445Z" fill="white"/>
<path d="M70.8967 28.6967C70.2129 28.6967 69.6176 28.5436 69.111 28.2373C68.6298 27.931 68.2878 27.5098 68.0852 26.9738L61.3983 9.2848C61.5756 9.15718 61.9049 9.05508 62.3862 8.9785C62.8927 8.90193 63.3107 8.86364 63.64 8.86364C64.4505 8.86364 65.1724 9.02955 65.8056 9.36138C66.4642 9.66768 66.8947 10.1399 67.0974 10.778L70.6308 22.1112L69.9849 23.9873L70.3268 24.1022L74.6961 10.778C74.8987 10.1399 75.3167 9.66768 75.9499 9.36138C76.6085 9.02955 77.343 8.86364 78.1535 8.86364C78.4828 8.86364 78.8881 8.90193 79.3693 8.9785C79.8759 9.05508 80.2179 9.15718 80.3952 9.2848L73.7083 26.9738C73.5056 27.5098 73.151 27.931 72.6445 28.2373C72.1632 28.5436 71.5806 28.6967 70.8967 28.6967Z" fill="white"/>
<path d="M89.8511 28.6967C88.2807 28.6967 86.8243 28.3777 85.4819 27.7395C84.1647 27.1014 83.1136 26.2336 82.3284 25.136C81.5432 24.0384 81.1506 22.8132 81.1506 21.4603V16.5595C81.1506 15.1301 81.5432 13.8283 82.3284 12.6541C83.1389 11.4544 84.2154 10.5228 85.5578 9.85912C86.9003 9.19547 88.344 8.86364 89.8891 8.86364C91.4089 8.86364 92.802 9.1827 94.0684 9.82083C95.3602 10.4334 96.3734 11.3141 97.1079 12.4627C97.8425 13.5858 98.2097 14.8621 98.2097 16.2915V18.359C98.2097 18.9716 97.9818 19.4949 97.5258 19.9288C97.0699 20.3372 96.4873 20.5414 95.7781 20.5414H86.2037V21.0775C86.2037 22.0985 86.5077 22.9408 87.1156 23.6045C87.7488 24.2426 88.6733 24.5617 89.8891 24.5617C91.0796 24.5617 91.9534 24.3064 92.5107 23.7959C93.0679 23.2599 93.3465 22.5962 93.3465 21.8049C93.8531 21.7539 94.2331 21.7284 94.4863 21.7284C95.5248 21.7284 96.3227 21.9453 96.8799 22.3792C97.4372 22.8132 97.7158 23.4513 97.7158 24.2936C97.7158 24.9828 97.3739 25.672 96.69 26.3612C96.0061 27.0504 95.0563 27.6119 93.8405 28.0458C92.65 28.4798 91.3202 28.6967 89.8511 28.6967ZM93.4985 16.8275V16.2915C93.4985 15.2705 93.1566 14.4664 92.4727 13.8793C91.8141 13.2667 90.9403 12.9604 89.8511 12.9604C88.762 12.9604 87.8755 13.2667 87.1916 13.8793C86.533 14.4664 86.2037 15.2705 86.2037 16.2915V16.8275H93.4985Z" fill="white"/>
<path d="M52.4882 57.4126C50.9178 57.4126 49.4614 57.0936 48.119 56.4554C46.8018 55.8173 45.7507 54.9494 44.9655 53.8519C44.1803 52.7543 43.7877 51.5291 43.7877 50.1762V45.2754C43.7877 43.846 44.1803 42.5442 44.9655 41.37C45.776 40.1703 46.8525 39.2387 48.1949 38.575C49.5374 37.9113 50.9811 37.5795 52.5262 37.5795C54.046 37.5795 55.4391 37.8986 56.7055 38.5367C57.9973 39.1493 59.0105 40.0299 59.745 41.1786C60.4796 42.3017 60.8468 43.5779 60.8468 45.0074V47.0749C60.8468 47.6875 60.6189 48.2108 60.1629 48.6447C59.707 49.0531 59.1245 49.2573 58.4152 49.2573H48.8408V49.7933C48.8408 50.8144 49.1448 51.6567 49.7527 52.3203C50.3859 52.9585 51.3104 53.2775 52.5262 53.2775C53.7167 53.2775 54.5905 53.0223 55.1478 52.5118C55.705 51.9758 55.9836 51.3121 55.9836 50.5208C56.4902 50.4698 56.8702 50.4442 57.1235 50.4442C58.1619 50.4442 58.9598 50.6612 59.5171 51.0951C60.0743 51.5291 60.3529 52.1672 60.3529 53.0095C60.3529 53.6987 60.011 54.3879 59.3271 55.0771C58.6432 55.7663 57.6934 56.3278 56.4776 56.7617C55.2871 57.1957 53.9573 57.4126 52.4882 57.4126ZM56.1356 45.5434V45.0074C56.1356 43.9864 55.7937 43.1823 55.1098 42.5952C54.4512 41.9826 53.5774 41.6763 52.4882 41.6763C51.3991 41.6763 50.5126 41.9826 49.8287 42.5952C49.1701 43.1823 48.8408 43.9864 48.8408 45.0074V45.5434H56.1356Z" fill="white"/>
<path d="M72.4738 57.4126C70.3208 57.4126 68.7377 56.7873 67.7246 55.5365C66.7114 54.2858 66.2048 52.6777 66.2048 50.7123V41.7912H62.1775C62.1775 40.4894 62.4181 39.5194 62.8994 38.8813C63.3806 38.2432 64.0139 37.9241 64.7991 37.9241H66.2808V34.8994C66.2808 33.8018 66.6987 33.0233 67.5346 32.5638C68.3705 32.0788 69.6369 31.8363 71.334 31.8363V37.9241H76.3871C76.3871 39.3025 76.1338 40.298 75.6273 40.9106C75.1207 41.4976 74.2848 41.7912 73.1197 41.7912H71.41V50.5208C71.41 51.3631 71.5746 51.9757 71.9039 52.3586C72.2332 52.716 72.8031 52.8947 73.6136 52.8947C74.5001 52.8947 75.412 52.6394 76.3491 52.1289C76.6277 52.3842 76.843 52.7032 76.995 53.0861C77.1723 53.469 77.261 53.8519 77.261 54.2347C77.261 54.7452 77.0837 55.243 76.7291 55.728C76.3745 56.2129 75.8299 56.6213 75.0953 56.9532C74.3861 57.2595 73.5123 57.4126 72.4738 57.4126Z" fill="white"/>
<path d="M87.7232 57.4126C85.5702 57.4126 83.9871 56.7873 82.974 55.5365C81.9608 54.2858 81.4542 52.6777 81.4542 50.7123V41.7912H77.4269C77.4269 40.4894 77.6675 39.5194 78.1488 38.8813C78.63 38.2432 79.2633 37.9241 80.0485 37.9241H81.5302V34.8994C81.5302 33.8018 81.9481 33.0233 82.784 32.5638C83.6199 32.0788 84.8863 31.8363 86.5834 31.8363V37.9241H91.6365C91.6365 39.3025 91.3832 40.298 90.8767 40.9106C90.3701 41.4976 89.5342 41.7912 88.3691 41.7912H86.6594V50.5208C86.6594 51.3631 86.824 51.9757 87.1533 52.3586C87.4826 52.716 88.0525 52.8947 88.863 52.8947C89.7495 52.8947 90.6614 52.6394 91.5985 52.1289C91.8772 52.3842 92.0925 52.7032 92.2444 53.0861C92.4217 53.469 92.5104 53.8519 92.5104 54.2347C92.5104 54.7452 92.3331 55.243 91.9785 55.728C91.6239 56.2129 91.0793 56.6213 90.3447 56.9532C89.6355 57.2595 88.7617 57.4126 87.7232 57.4126Z" fill="white"/>
<path d="M102.381 57.4126C100.177 57.4126 98.5183 56.7873 97.4038 55.5365C96.2894 54.2603 95.7321 52.6522 95.7321 50.7123V32.985C95.7321 31.8874 96.1501 31.1089 96.9859 30.6494C97.8471 30.1644 99.1642 29.922 100.937 29.922V50.5208C100.937 51.3631 101.127 51.9757 101.507 52.3586C101.887 52.716 102.482 52.8947 103.293 52.8947C104.255 52.8947 105.205 52.6394 106.142 52.1289C106.421 52.3842 106.636 52.7032 106.788 53.0861C106.966 53.469 107.054 53.8519 107.054 54.2347C107.054 55.0515 106.649 55.7918 105.838 56.4554C105.053 57.0936 103.901 57.4126 102.381 57.4126Z" fill="white"/>
<path d="M117.641 57.4126C116.071 57.4126 114.615 57.0936 113.272 56.4554C111.955 55.8173 110.904 54.9494 110.119 53.8519C109.333 52.7543 108.941 51.5291 108.941 50.1762V45.2754C108.941 43.846 109.333 42.5442 110.119 41.37C110.929 40.1703 112.006 39.2387 113.348 38.575C114.691 37.9113 116.134 37.5795 117.679 37.5795C119.199 37.5795 120.592 37.8986 121.859 38.5367C123.15 39.1493 124.164 40.0299 124.898 41.1786C125.633 42.3017 126 43.5779 126 45.0074V47.0749C126 47.6875 125.772 48.2108 125.316 48.6447C124.86 49.0531 124.278 49.2573 123.568 49.2573H113.994V49.7933C113.994 50.8144 114.298 51.6567 114.906 52.3203C115.539 52.9585 116.464 53.2775 117.679 53.2775C118.87 53.2775 119.744 53.0223 120.301 52.5118C120.858 51.9758 121.137 51.3121 121.137 50.5208C121.643 50.4698 122.023 50.4442 122.277 50.4442C123.315 50.4442 124.113 50.6612 124.67 51.0951C125.227 51.5291 125.506 52.1672 125.506 53.0095C125.506 53.6987 125.164 54.3879 124.48 55.0771C123.796 55.7663 122.847 56.3278 121.631 56.7617C120.44 57.1957 119.11 57.4126 117.641 57.4126ZM121.289 45.5434V45.0074C121.289 43.9864 120.947 43.1823 120.263 42.5952C119.604 41.9826 118.731 41.6763 117.641 41.6763C116.552 41.6763 115.666 41.9826 114.982 42.5952C114.323 43.1823 113.994 43.9864 113.994 45.0074V45.5434H121.289Z" fill="white"/>
<path d="M105.958 34.7335C105.173 34.7335 104.54 34.5165 104.058 34.0826C103.602 33.6231 103.374 33.036 103.374 32.3213C103.374 30.3048 104.16 28.4798 105.73 26.8462C107.3 25.2125 109.795 23.6683 113.215 22.2133C114.734 21.5752 115.887 20.9754 116.672 20.4138C117.483 19.8522 118.053 19.2524 118.382 18.6143C118.736 17.9761 118.914 17.2104 118.914 16.317C118.914 15.1173 118.496 14.1856 117.66 13.522C116.849 12.8328 115.71 12.4882 114.241 12.4882C112.518 12.4882 111.239 12.8328 110.403 13.522C109.567 14.1856 109.149 15.2194 109.149 16.6233C109.149 17.4146 109.213 18.0527 109.339 18.5377C108.909 18.6143 108.516 18.6526 108.162 18.6526C106.92 18.6526 105.857 18.2952 104.97 17.5805C104.084 16.8403 103.64 15.9341 103.64 14.8621C103.64 13.5092 104.096 12.284 105.008 11.1864C105.945 10.0633 107.224 9.1827 108.845 8.54457C110.467 7.90644 112.265 7.58737 114.241 7.58737C116.292 7.58737 118.091 7.95749 119.636 8.69772C121.206 9.41243 122.422 10.4334 123.283 11.7608C124.144 13.0625 124.575 14.5813 124.575 16.317C124.575 18.2059 123.866 19.9416 122.447 21.5242C121.054 23.1067 118.964 24.4978 116.178 25.6975C113.975 26.642 112.366 27.446 111.353 28.1097C110.365 28.7733 109.833 29.3859 109.757 29.9475H120.851C122.219 29.9475 123.245 30.3559 123.929 31.1727C124.638 31.964 124.993 33.1509 124.993 34.7335H105.958Z" fill="white"/>
</svg>
